<svg xmlns="http://www.w3.org/2000/svg" viewBox="0 0 360 136" role="img">
  <rect width="360" height="136" rx="14" fill="#F2F0E8"/>
  <path d="M31 113c75-2 137-1 190 2" fill="none" stroke="#CDD6CC" stroke-width="1" stroke-linecap="round" opacity=".7"/>
  <g fill="none" stroke="#71857E" stroke-linecap="round" opacity=".63">
    <path d="M58 31l2 5m-2-2h5M105 20l2 6m-2-3h6M151 37l2 5m-2-2h5" stroke-width="1"/>
    <circle cx="82" cy="22" r="2.2" fill="#B66D5C" stroke="none"/>
  </g>
  <g transform="translate(157 31)" fill="none" stroke="#526254" stroke-linecap="round" stroke-linejoin="round">
    <circle cx="27" cy="14" r="7" fill="#B79D80" fill-opacity=".4" stroke-width="1.15"/>
    <path d="M25 21c-5 16-2 29 7 40M27 30L9 20M30 33l19-16M32 60l-15 17M34 60l20 16" stroke-width="1.35"/>
    <path d="M8 19L-3 9M49 17l9-12" stroke="#71857E" stroke-width="1"/>
  </g>
  <g transform="translate(207 55)" fill="none" stroke="#526254" stroke-linecap="round" stroke-linejoin="round">
    <ellipse cx="49" cy="43" rx="50" ry="18" fill="#CDD6CC" fill-opacity=".38" stroke-width="1.2"/>
    <path d="M3 43v20c8 13 84 14 92 0V43" fill="#9AAB9B" fill-opacity=".2" stroke-width="1.15"/>
    <ellipse cx="49" cy="43" rx="37" ry="11" stroke="#71857E" stroke-width="1" opacity=".68"/>
    <path d="M25 47c13-5 29-5 47 0" stroke="#71857E" stroke-width=".9" opacity=".55"/>
  </g>
  <path d="M180 93c11 8 23 12 38 13" fill="none" stroke="#B66D5C" stroke-width="1.2" stroke-linecap="round" opacity=".72"/>
</svg>
