<svg xmlns="http://www.w3.org/2000/svg" viewBox="0 0 360 136" fill="none" role="img" aria-labelledby="title">
  <title id="title">四对人：早期现代客店里的合床与留名</title>
  <rect width="360" height="136" fill="#F3F1E9"/>
  <path d="M35 108V37M247 108V37M30 37H252M44 47H238V108H44V47Z" fill="#CDD6CC" fill-opacity=".33" stroke="#56645A" stroke-opacity=".56" stroke-width="1.15" stroke-linejoin="round"/>
  <path d="M44 47L69 28H223L238 47M69 28V47M223 28V47" fill="#E5D8CA" fill-opacity=".54" stroke="#776956" stroke-opacity=".46" stroke-width="1.05" stroke-linejoin="round"/>
  <path d="M53 67C91 58 190 58 230 67V101H53V67Z" fill="#F4F1E8" stroke="#71857E" stroke-opacity=".42" stroke-width="1"/>
  <g fill="#9AAB9B" fill-opacity=".7">
    <circle cx="73" cy="68" r="4.2"/><circle cx="88" cy="68" r="4.2"/>
    <circle cx="119" cy="65" r="4.2"/><circle cx="134" cy="65" r="4.2"/>
    <circle cx="165" cy="67" r="4.2"/><circle cx="180" cy="67" r="4.2"/>
    <circle cx="208" cy="64" r="4.2"/><circle cx="223" cy="64" r="4.2"/>
  </g>
  <path d="M53 78C91 69 192 70 230 78V101H53V78Z" fill="#B79D80" fill-opacity=".48" stroke="#776956" stroke-opacity=".4" stroke-width="1"/>
  <path d="M70 84C91 79 111 80 130 84M151 85C170 80 190 80 210 84" stroke="#F3F1E9" stroke-opacity=".7" stroke-width="1" stroke-linecap="round"/>
  <g stroke="#A86456" stroke-opacity=".58" stroke-width="1" stroke-linecap="round"><path d="M82 42L87 38L91 42M193 38L198 34L203 38"/><circle cx="214" cy="40" r="2.3" fill="#B66D5C" fill-opacity=".45"/></g>
  <g transform="translate(278 70)" stroke="#776956" stroke-opacity=".48" stroke-width="1.05" stroke-linejoin="round"><path d="M0 17H45V44H0V17Z" fill="#E5D8CA" fill-opacity=".62"/><path d="M8 17V10H37V17M0 25H45M20 25V30H26V25"/></g>
  <path d="M25 115C112 110 233 113 333 109" stroke="#71857E" stroke-opacity=".2" stroke-linecap="round"/>
  <g fill="#71857E" fill-opacity=".3"><circle cx="288" cy="35" r="1.3"/><circle cx="316" cy="48" r="1"/></g>
</svg>
