<svg xmlns="http://www.w3.org/2000/svg" viewBox="0 0 360 136" role="img">
  <rect width="360" height="136" rx="14" fill="#F2F0E8"/>
  <g fill="none" stroke="#526254" stroke-linecap="round" stroke-linejoin="round">
    <path d="M282 119c-8-30-14-55-12-91" stroke-width="2.1"/>
    <path d="M270 43c-29-8-54-7-79 3M272 57c24-13 42-18 63-17M268 72c-25-2-43 3-62 14" stroke-width="1.3"/>
    <path d="M225 78c7-8 15-9 23-2l7 10-8 15-16-2-7-12z" fill="#CDD6CC" fill-opacity=".46" stroke-width="1.1"/>
    <circle cx="236" cy="72" r="4.4" fill="#B79D80" fill-opacity=".58" stroke-width="1"/>
    <path d="M229 83l-12 13M247 86l11 9M231 98l-3 13M246 100l6 11" stroke-width="1.2"/>
    <path d="M24 102h157l21-17h27" stroke="#9C866B" stroke-width="1.1"/>
    <path d="M49 102V81h117v21" stroke="#9C866B" stroke-width="1" opacity=".7"/>
  </g>
  <path d="M263 96c-10 0-17 5-22 12" fill="none" stroke="#B66D5C" stroke-width="1.2" stroke-linecap="round" opacity=".75"/>
  <circle cx="238" cy="111" r="2.8" fill="#B66D5C" fill-opacity=".68"/>
  <g fill="none" stroke="#CDD6CC" stroke-width="1" stroke-linecap="round" opacity=".7">
    <path d="M30 31c40 7 77 7 112 1"/><path d="M39 45c33 6 64 5 94 0"/>
  </g>
</svg>
