<svg xmlns="http://www.w3.org/2000/svg" viewBox="0 0 360 136" role="img">
  <rect width="360" height="136" rx="14" fill="#F2F0E8"/>
  <path d="M31 111c83-2 160-1 231 3" fill="none" stroke="#CDD6CC" stroke-width="1" stroke-linecap="round" opacity=".72"/>
  <g transform="translate(130 56)" fill="none" stroke="#526254" stroke-linecap="round" stroke-linejoin="round">
    <ellipse cx="51" cy="35" rx="21" ry="27" transform="rotate(18 51 35)" fill="#F4F1E8" stroke-width="1.3"/>
    <path d="M17 42c9-12 18-16 28-14M12 50c13 8 25 10 36 7" stroke="#71857E" stroke-width="1" opacity=".62"/>
    <path d="M43 7c8-7 18-8 29-4" stroke="#B66D5C" stroke-width="1.1" opacity=".65"/>
  </g>
  <g transform="translate(56 30)" fill="none" stroke="#9C866B" stroke-linecap="round">
    <path d="M0 0l72 41M9-7l72 40" stroke-width="2"/>
    <path d="M71 40l14 8M79 33l13 7" stroke-width="1" opacity=".58"/>
  </g>
  <g transform="translate(238 42) rotate(-8)" fill="none" stroke="#526254" stroke-linecap="round" stroke-linejoin="round">
    <path d="M8 0h45v27c0 12 8 19 23 21v25H16C6 57 1 37 8 0z" fill="#B79D80" fill-opacity=".36" stroke-width="1.2"/>
    <path d="M18 54h48M22 60v9m10-9v9m10-9v9m10-9v9" stroke="#71857E" stroke-width="1" opacity=".68"/>
  </g>
  <circle cx="211" cy="94" r="3.2" fill="#B66D5C" fill-opacity=".7"/>
</svg>
